# xmcd
#
# Track frame offsets: 
#        150
#        13500
#        34430
#        49414
#        64522
#        81202
#        97767
#        110240
#        123742
#        138820
#        153532
#
# Disc length: 2276 seconds
#
# Revision: 0
# Processed by: cddbd v1.5.1PL0 Copyright (c) Steve Scherf et al.
# Submitted via: ExactAudioCopy v0.90b4
#
DISCID=9308e20b
DTITLE=Adam Couldwell - Paint a Bigger Picture
DYEAR=1997
DGENRE=Crossover
TTITLE0=Ain't going back
TTITLE1=No Mountain will stand in his way
TTITLE2=Let my tears tell the tale
TTITLE3=Rebel at heart
TTITLE4=When soul meets soul
TTITLE5=Paint a bigger picture
TTITLE6=Memory and a memo
TTITLE7=Maybe she'll come back
TTITLE8=Do miracles really happen
TTITLE9=It's more
TTITLE10=Born on Christmas day
EXTD=
EXTT0=
EXTT1=
EXTT2=
EXTT3=
EXTT4=
EXTT5=
EXTT6=
EXTT7=
EXTT8=
EXTT9=
EXTT10=
PLAYORDER=
